<svg xmlns="http://www.w3.org/2000/svg" xmlns:xlink="http://www.w3.org/1999/xlink" version="1.1" id="Capa_15" x="0px" y="0px" width="100px" height="100px" viewBox="0 0 100 100" enable-background="new 0 0 100 100" xml:space="preserve">
<g>
	<g>
		<g>
			<g>
				<path d="M21.461,25.254h5.951c0,3.287-2.663,5.952-5.951,5.952c-3.284,0-5.951-2.665-5.951-5.952      c0-3.286,2.667-5.949,5.951-5.949c3.288,0,5.951,2.664,5.951,5.949l0,0H21.461z"/>
				<path d="M21.461,41.637h2.021c0,1.115-0.905,2.02-2.021,2.02s-2.017-0.904-2.017-2.02s0.901-2.02,2.017-2.02      s2.021,0.904,2.021,2.02l0,0H21.461z"/>
				<path d="M21.461,58.008h7.288c0,4.025-3.264,7.288-7.288,7.288c-4.025,0-7.288-3.263-7.288-7.288      c0-4.024,3.263-7.288,7.288-7.288c4.024,0,7.288,3.263,7.288,7.288l0,0H21.461z"/>
				<path d="M21.461,74.391h3.93c0,2.169-1.762,3.929-3.93,3.929c-2.169,0-3.928-1.76-3.928-3.929c0-2.171,1.759-3.93,3.928-3.93      c2.168,0,3.93,1.759,3.93,3.93l0,0H21.461z"/>
			</g>
		</g>
	</g>
	<g>
		<g>
			<g>
				<path d="M49.794,25.254h8.152c0,4.503-3.65,8.154-8.152,8.154c-4.5,0-8.15-3.651-8.15-8.154c0-4.501,3.65-8.15,8.15-8.15      c4.501,0,8.152,3.649,8.152,8.15l0,0H49.794z"/>
				<path d="M49.794,41.638h2.566c0,1.417-1.146,2.564-2.566,2.564c-1.416,0-2.564-1.147-2.564-2.564      c0-1.417,1.148-2.566,2.564-2.566c1.419,0,2.566,1.148,2.566,2.566l0,0H49.794z"/>
				<path d="M49.798,58.008h10.592c0,5.853-4.744,10.593-10.592,10.593c-5.852,0-10.597-4.74-10.597-10.593      c0-5.852,4.745-10.593,10.597-10.593c5.848,0,10.592,4.742,10.592,10.593l0,0H49.798z"/>
				<path d="M49.794,74.391h1.91c0,1.054-0.856,1.91-1.91,1.91c-1.054,0-1.908-0.856-1.908-1.91c0-1.056,0.854-1.909,1.908-1.909      c1.053,0,1.91,0.854,1.91,1.909l0,0H49.794z"/>
			</g>
		</g>
	</g>
	<g>
		<g>
			<g>
				<path d="M78.13,25.254h2.792c0,1.542-1.251,2.792-2.792,2.792s-2.788-1.25-2.788-2.792c0-1.541,1.247-2.79,2.788-2.79      s2.792,1.249,2.792,2.79l0,0H78.13z"/>
				<path d="M78.13,41.638h7.508c0,4.147-3.362,7.508-7.508,7.508c-4.146,0-7.509-3.361-7.509-7.508      c0-4.147,3.362-7.509,7.509-7.509c4.146,0,7.508,3.362,7.508,7.509l0,0H78.13z"/>
				<path d="M78.13,58.008h4.247c0,2.346-1.903,4.247-4.247,4.247c-2.348,0-4.247-1.901-4.247-4.247s1.899-4.246,4.247-4.246      c2.344,0,4.247,1.9,4.247,4.246l0,0H78.13z"/>
				<path d="M78.13,74.391h8.595c0,4.745-3.851,8.593-8.595,8.593c-4.745,0-8.595-3.848-8.595-8.593c0-4.747,3.85-8.595,8.595-8.595      c4.744,0,8.595,3.848,8.595,8.595l0,0H78.13z"/>
			</g>
		</g>
	</g>
	<polygon points="61.979,41.99 69.656,41.99 100,41.99 100,41.285 69.656,41.285 61.979,41.285 1.412,41.285 1.412,25.592    100,25.592 100,24.887 0,24.887 0,91.513 99.996,91.513 99.996,90.115 1.407,90.107 1.407,74.775 61.979,74.775 69.656,74.775    100,74.775 100,74.072 69.656,74.072 61.979,74.072 1.407,74.072 1.41,58.379 61.979,58.379 69.656,58.379 100,58.379 100,57.673    69.656,57.673 61.979,57.673 1.41,57.673 1.412,41.99  "/>
	<polyline points="1.41,41.275 1.412,25.592 61.979,25.592 69.656,25.592 100,25.592 100,24.887 69.656,24.887 61.979,24.887    1.412,24.887 1.412,9.193 100,9.193 100,8.488 0,8.488 0,41.275  "/>
</g>
</svg>