<svg xmlns="http://www.w3.org/2000/svg" xmlns:xlink="http://www.w3.org/1999/xlink" version="1.1" id="Capa_1" x="0px" y="0px" width="100px" height="100px" viewBox="0 0 100 100" enable-background="new 0 0 100 100" xml:space="preserve">
<g id="Capa_5">
	<g>
		<g>
			<path d="M15.323,55.297c-0.505,1.855-0.795,3.805-0.795,5.825c0,2.019,0.29,3.967,0.795,5.826l17.928-5.826L15.323,55.297z"/>
			<path d="M33.923,59.053l-7.81-10.748c-2.122,1.763-3.795,4.034-4.834,6.64L33.923,59.053z"/>
			<path d="M84.682,75.546c1.375-4.569,2.131-9.405,2.131-14.424s-0.756-9.854-2.131-14.424l-44.39,14.424L84.682,75.546z"/>
			<path d="M39.619,63.191L63.771,96.43c6.793-5.201,12.035-12.312,14.929-20.539L39.619,63.191z"/>
			<path d="M10.707,70.732c1.787,4.855,4.88,9.063,8.866,12.207l14.351-19.748L10.707,70.732z"/>
			<path d="M35.684,64.469L18.073,88.703c5.054,3.434,11.09,5.512,17.611,5.724V64.469z"/>
			<path d="M37.859,64.469V100c7.744-0.213,14.915-2.688,20.889-6.784L37.859,64.469z"/>
			<path d="M37.859,57.773L71.825,11.03C62.177,4.27,50.494,0.221,37.859,0V57.773z"/>
			<path d="M35.684,50.074c-1.643,0.16-3.173,0.68-4.524,1.475l4.524,6.225V50.074z"/>
			<path d="M89.293,42.913c-3.632-10.486-10.305-19.537-18.977-26.107L39.619,59.053L89.293,42.913z"/>
		</g>
	</g>
</g>
</svg>