<svg xmlns="http://www.w3.org/2000/svg" xmlns:xlink="http://www.w3.org/1999/xlink" version="1.1" id="Your_Icon" x="0px" y="0px" width="100px" height="100px" viewBox="0 0 100 100" enable-background="new 0 0 100 100" xml:space="preserve">
<g id="Shape_3">
	<g>
		
			<rect x="62.875" y="61.013" transform="matrix(0.7216 -0.6923 0.6923 0.7216 -29.4964 63.2335)" fill-rule="evenodd" clip-rule="evenodd" width="2" height="14.558"/>
	</g>
</g>
<g id="Shape_4">
	<g>
		
			<rect x="56.209" y="65.01" transform="matrix(0.8934 -0.4492 0.4492 0.8934 -26.3942 33.4036)" fill-rule="evenodd" clip-rule="evenodd" width="2" height="14.647"/>
	</g>
</g>
<g id="Shape_2">
	<g>
		<path fill-rule="evenodd" clip-rule="evenodd" d="M79.844,53.354c0.006-0.054,0.031-0.101,0.031-0.156    c0-0.742-0.602-1.344-1.344-1.344H64.656c-0.742,0-1.344,0.602-1.344,1.344c0,0.056,0.025,0.103,0.031,0.156h-0.198    c-1.224,7.338-7.585,12.938-15.271,12.938c-8.561,0-15.5-6.939-15.5-15.5s6.939-15.5,15.5-15.5c0.527,0,1.048,0.027,1.563,0.079    v-0.523c0.021,0.001,0.041,0.006,0.063,0.006c0.828,0,1.5-0.672,1.5-1.5V20.479c0-0.828-0.672-1.5-1.5-1.5    c-0.021,0-0.042,0.005-0.063,0.006v-0.131c-0.642-0.038-1.287-0.063-1.938-0.063c-17.949,0-32.5,14.551-32.5,32.5    s14.551,32.5,32.5,32.5c17.256,0,31.363-13.45,32.428-30.438H79.844z M47.5,80.667c-16.223,0-29.375-13.151-29.375-29.375    S31.277,21.917,47.5,21.917c0.146,0,0.291,0.009,0.438,0.011v9.867c-0.021,0-0.042-0.003-0.063-0.003    c-10.286,0-18.625,8.339-18.625,18.625s8.339,18.625,18.625,18.625c8.821,0,16.193-6.141,18.119-14.375h10.682    C75.001,69.3,62.581,80.667,47.5,80.667z"/>
	</g>
</g>
<g id="Shape_2_copy">
	<g>
		<path fill-rule="evenodd" clip-rule="evenodd" d="M85.438,46.354c0-16.527-12.339-30.164-28.307-32.222    c-0.138-0.035-0.279-0.06-0.428-0.06c-0.01,0-0.02,0.003-0.029,0.003c-0.155-0.018-0.309-0.042-0.465-0.058v0.135    c-0.716,0.214-1.24,0.869-1.24,1.654v14.281c0,0.785,0.524,1.44,1.24,1.654v0.061c6.716,1.622,11.723,7.604,11.842,14.79    c-0.008,0.065-0.02,0.13-0.02,0.198c0,0.078,0.013,0.153,0.023,0.228c-0.004,0.049-0.007,0.098-0.008,0.147h0.032    c0.17,0.716,0.81,1.25,1.577,1.25h14.125c0.768,0,1.407-0.534,1.577-1.25h0.059C85.424,46.896,85.438,46.627,85.438,46.354z     M58.438,29.574V17.507c13.216,2.505,23.299,13.851,23.849,27.66H71.059C70.25,37.854,65.212,31.827,58.438,29.574z"/>
	</g>
</g>
</svg>