<svg xmlns="http://www.w3.org/2000/svg" xmlns:xlink="http://www.w3.org/1999/xlink" version="1.1" id="Your_Icon" x="0px" y="0px" width="100px" height="100px" viewBox="0 0 100 100" enable-background="new 0 0 100 100" xml:space="preserve">
<g>
	<path d="M97.03,42.048c-0.712,0-1.515-0.066-2.321-0.267c-2.293-0.568-9.664-4.297-12.146-6.945   c-1.428-1.523-5.062-0.837-7.98-0.286c-1.603,0.303-2.983,0.566-3.812,0.418c-2.104-0.371-4.658-0.001-4.684,0.001l-0.276,0.041   l-0.154-0.234c-0.687-1.054-2.82-3.788-4.417-3.788c-1.377,0-2.578-1.532-3.968-3.308c-1.091-1.394-2.327-2.972-3.686-3.748   c-2.814-1.609-10-0.916-13.489,1.301c-3.409,2.166-5.627,3.492-5.649,3.505l-0.104,0.062h-0.12c-0.245,0-5.999-0.021-7.781-1.884   c-0.122-0.126-11.518-13.518-9.396-16.244c0.145-0.187,0.188-0.385,0.133-0.626c-0.346-1.536-4.035-3.69-5.427-4.39l0.393-0.781   c0.55,0.276,5.388,2.764,5.887,4.979c0.111,0.495,0.01,0.963-0.295,1.355c-1.267,1.627,7.056,12.721,9.337,15.102   c1.235,1.291,5.379,1.599,7.029,1.614c0.475-0.285,2.542-1.535,5.524-3.43c3.456-2.195,11.057-3.229,14.393-1.323   c1.507,0.862,2.801,2.512,3.941,3.969c1.196,1.528,2.327,2.972,3.278,2.972c2.113,0,4.355,3.022,4.996,3.954   c0.744-0.089,2.839-0.29,4.688,0.039c0.671,0.115,2.043-0.141,3.497-0.416c3.13-0.591,7.023-1.328,8.782,0.548   c2.39,2.55,9.503,6.145,11.717,6.693c2.163,0.537,4.364,0.006,4.386,0l0.21,0.849C99.45,41.798,98.411,42.048,97.03,42.048z"/>
</g>
<path d="M99.99,4.61L66.937,0.121l0,0L66.034,0l-0.848,0.17v0.001L33.902,6.482L0,1.879v97.048l33.92-4.939l32.144,5.252  l0.695-0.111l33.23-5.279V4.61z M1.75,3.884l31.305,4.25v84.212L1.75,96.904V3.884z M34.804,8.085l30.383-6.131v95.368  l-30.383-4.963V8.085z M98.241,92.357l-31.305,4.971V1.888l31.305,4.25V92.357z"/>
<polygon points="34.223,83.115 33.042,84.076 33.042,81.416 1.74,41.357 1.74,52.723 28.887,87.461 19.291,95.277 34.223,93.104   34.437,93.139 66.355,67.186 66.355,57.037 34.223,83.166 "/>
<path d="M65.484,49.236V38.308L50.71,22.705c-2.946-0.301-6.742,0.273-9.406,1.415l23.874,25.162L65.484,49.236z"/>
<path d="M100,41.357c0,0-2.303,0.568-4.597,0c-0.737-0.183-1.986-0.689-3.42-1.375L75.626,51.09l-0.002-0.002l-8.679-11.105v11.365  l2.878,3.682l0,0l-2.878,1.955v10.262l8.048-5.6l22.949,29.367l0.307-0.045V80.041L80.747,57.643l19.186-13.349L100,41.357z"/>
<path d="M81.15,12.951c-4.632,0-8.389,3.756-8.389,8.389c0,4.633,8.389,21.497,8.389,21.497s8.39-16.864,8.39-21.497  C89.54,16.707,85.784,12.951,81.15,12.951z M81.15,24.351c-1.468,0-2.655-1.189-2.655-2.656s1.188-2.656,2.655-2.656  s2.657,1.189,2.657,2.656S82.618,24.351,81.15,24.351z"/>
</svg>