<svg xmlns="http://www.w3.org/2000/svg" width="100.0px" height="100px" viewBox="0 0 640 640" version="1.1">
<path fill="#000000" stroke="#000000" stroke-width="0.09375" opacity="1.00" d=" M 268.4 25.6 C 283.2 24.6 298.2 22.6 312.9 25.1 C 334.3 28.4 353.7 39.9 368.9 55.1 C 383.4 69.0 392.7 87.5 398.4 106.6 C 411.8 148.2 424.4 190.1 437.2 231.9 C 439.1 240.1 443.3 247.4 447.2 254.8 C 448.4 257.3 445.9 259.8 446.6 262.4 C 447.5 266.3 448.8 270.1 450.2 273.8 C 465.5 277.9 481.2 280.5 496.6 284.5 C 500.6 285.4 504.7 287.5 506.5 291.5 C 507.6 294.3 507.4 297.4 507.5 300.4 C 507.6 305.2 508.0 310.1 507.6 314.9 C 507.6 317.8 504.4 319.1 502.2 320.1 C 490.9 324.4 478.6 324.3 467.0 327.1 C 467.4 329.2 467.8 331.4 468.5 333.4 C 489.9 402.4 510.4 471.6 531.2 540.7 C 532.9 546.7 536.8 552.0 537.9 558.2 C 539.0 560.7 536.5 562.5 534.8 563.8 C 531.3 566.3 525.9 567.5 522.4 564.6 C 519.4 559.1 519.7 552.7 518.1 546.8 C 510.6 521.7 503.1 496.6 495.5 471.4 C 492.5 461.9 490.1 452.2 486.8 442.8 C 482.0 442.1 477.2 443.5 472.4 444.3 C 445.9 449.4 419.4 454.1 392.9 458.8 C 386.4 460.1 379.8 460.8 373.3 462.4 C 372.0 467.3 371.2 472.3 370.3 477.2 C 369.3 483.0 370.6 489.4 367.7 494.7 C 363.4 497.8 355.7 496.8 353.3 491.7 C 353.0 486.5 355.4 481.7 356.8 476.9 C 358.1 473.1 358.5 469.0 359.0 465.1 C 344.0 467.0 329.3 470.1 314.4 472.4 C 293.6 476.0 272.8 479.4 252.1 483.3 C 252.0 484.7 252.0 486.2 252.4 487.6 C 262.6 522.8 272.6 558.1 282.6 593.4 C 284.6 598.7 287.8 603.5 288.6 609.2 C 289.2 611.7 286.9 613.7 284.9 614.9 C 281.2 616.9 276.3 617.8 272.5 615.6 C 269.0 610.2 269.5 603.6 268.4 597.6 C 256.1 554.5 243.8 511.5 231.7 468.3 C 227.4 453.4 223.7 438.2 219.0 423.4 C 200.1 426.0 181.3 429.0 162.4 431.6 C 156.5 432.6 150.4 432.8 144.6 434.4 C 140.0 462.7 136.6 491.2 132.5 519.6 C 132.0 525.5 133.6 531.7 131.4 537.4 C 127.3 541.9 118.3 540.5 115.8 534.9 C 115.1 528.4 118.7 522.6 119.5 516.3 C 127.5 455.1 135.7 394.0 145.2 333.1 C 149.2 306.7 153.3 280.4 157.2 254.0 C 157.4 250.7 154.2 248.3 154.7 245.0 C 154.7 242.4 157.6 241.6 159.2 240.0 C 159.9 237.4 159.1 234.6 160.0 231.9 C 161.5 226.8 163.4 221.4 162.1 216.0 C 155.1 189.7 148.0 163.4 140.8 137.2 C 137.7 124.7 134.8 112.0 135.7 99.0 C 136.2 73.1 152.5 47.9 176.4 37.5 C 189.1 31.8 203.2 30.7 216.8 29.7 C 234.0 28.2 251.2 26.9 268.4 25.6 M 296.0 148.5 C 267.8 148.8 239.8 153.0 212.4 159.5 C 200.3 162.6 188.2 165.9 176.0 169.0 C 172.5 169.9 168.9 170.4 165.7 172.0 C 173.6 204.8 183.6 237.1 192.3 269.7 C 193.5 273.2 195.8 276.2 197.4 279.6 C 198.3 281.5 200.8 280.5 202.4 280.5 C 247.2 275.2 292.0 269.0 336.8 263.7 C 351.2 262.0 365.6 260.0 380.1 261.1 C 385.3 261.3 390.5 262.4 395.8 262.8 C 398.1 250.3 400.1 237.7 402.3 225.2 C 403.3 221.6 399.3 218.8 400.1 215.2 C 400.1 212.1 405.0 212.9 404.9 210.0 C 404.8 206.1 405.3 202.4 406.8 198.9 C 407.8 194.8 410.4 190.6 408.8 186.4 C 404.8 173.8 401.0 161.2 397.3 148.7 C 395.5 148.4 393.8 148.2 392.1 148.3 C 379.4 148.5 366.7 147.9 354.0 148.0 C 334.7 148.2 315.3 147.2 296.0 148.5 M 417.1 222.8 C 416.3 225.8 415.0 229.2 417.1 231.9 C 420.0 236.0 422.6 240.3 425.9 244.0 C 424.9 238.4 423.1 233.0 421.3 227.7 C 420.6 225.5 419.1 223.8 417.1 222.8 M 414.2 239.0 C 412.3 247.7 410.9 256.4 409.6 265.1 C 412.0 266.7 414.9 266.9 417.7 267.5 C 423.2 268.3 428.4 269.9 433.9 270.2 C 433.2 267.2 433.3 263.4 430.5 261.6 C 426.3 258.7 423.4 254.5 420.5 250.5 C 418.0 246.9 416.8 242.6 414.2 239.0 M 176.9 272.1 C 175.8 266.0 174.0 260.0 172.5 254.0 C 168.8 260.1 172.0 267.7 176.9 272.1 M 169.1 274.0 C 168.0 277.7 167.6 281.5 167.7 285.3 C 170.0 285.2 172.2 284.8 174.2 284.0 C 172.9 280.5 171.5 276.9 169.1 274.0 M 162.2 316.2 C 160.3 329.2 158.1 342.1 156.1 355.1 C 155.5 358.7 154.8 362.3 154.9 366.0 C 170.3 364.4 185.6 361.7 200.9 359.7 C 201.1 354.7 198.7 350.0 197.7 345.2 C 195.7 338.8 194.5 332.2 192.0 326.0 C 182.5 321.9 171.3 321.8 162.2 316.2 M 400.9 336.9 C 399.3 337.2 396.5 337.0 396.5 339.4 C 391.9 364.1 387.2 388.7 382.5 413.4 C 380.2 426.5 377.1 439.6 375.2 452.7 C 410.0 446.8 444.8 440.4 479.6 434.4 C 480.9 434.2 482.2 433.5 483.5 433.1 C 483.2 431.5 483.1 429.9 482.6 428.4 C 472.9 396.5 463.2 364.5 453.5 332.6 C 453.1 331.5 452.6 330.5 452.1 329.5 C 434.9 331.2 418.0 334.6 400.9 336.9 M 209.2 330.7 C 210.9 338.4 213.4 346.0 215.3 353.6 C 215.8 355.0 215.9 357.7 218.0 357.2 C 236.7 354.7 255.4 351.8 274.2 349.2 C 275.9 348.9 277.9 348.9 279.0 347.5 C 261.8 344.2 245.0 339.1 228.0 335.0 C 221.7 333.7 215.6 331.3 209.2 330.7 M 361.8 344.7 C 330.3 349.4 298.9 354.1 267.4 358.6 C 251.3 361.2 235.1 363.1 219.1 366.0 C 220.1 371.4 221.8 376.5 223.2 381.8 C 226.2 392.0 228.3 402.4 232.0 412.4 C 250.8 409.9 269.5 406.3 288.3 403.3 C 315.4 398.7 342.7 394.5 369.8 389.8 C 373.5 389.7 374.5 385.9 374.9 382.9 C 377.2 369.3 380.1 355.7 382.0 342.0 C 375.2 342.2 368.5 344.0 361.8 344.7 M 164.9 373.6 C 161.1 374.1 157.1 374.2 153.4 375.3 C 152.3 379.5 151.9 383.8 151.2 388.1 C 149.6 400.4 147.0 412.6 146.0 425.0 C 151.4 424.7 156.7 423.8 162.1 423.0 C 180.3 420.2 198.5 417.9 216.7 414.8 C 215.8 409.5 213.9 404.5 212.6 399.4 C 209.6 389.0 207.1 378.4 203.8 368.1 C 190.8 369.6 177.9 371.8 164.9 373.6 M 361.4 399.4 C 324.6 405.6 287.8 412.0 251.0 418.0 C 245.4 419.2 239.7 419.5 234.2 421.1 C 237.3 433.7 241.1 446.1 244.4 458.6 C 246.0 463.8 246.9 469.1 249.1 474.1 C 253.8 473.7 258.4 472.7 263.0 472.0 C 283.5 468.6 304.1 465.2 324.6 461.6 C 336.7 459.3 349.0 457.8 361.1 455.1 C 362.6 449.0 363.4 442.8 364.7 436.7 C 367.0 423.8 369.9 411.0 371.8 398.1 C 368.3 398.3 364.9 398.8 361.4 399.4 Z"/>
</svg>