<svg xmlns="http://www.w3.org/2000/svg" xmlns:xlink="http://www.w3.org/1999/xlink" version="1.1" id="Your_Icon" x="0px" y="0px" width="100px" height="100px" viewBox="0 0 100 100" enable-background="new 0 0 100 100" xml:space="preserve">
<path fill="#000000" d="M79.753,43.615c0-5.139-6.077-9.164-13.835-9.164c-1.239,0-2.435,0.103-3.571,0.297V9.029  c0-5.139-6.077-9.164-13.835-9.164c-7.758,0-13.835,4.025-13.835,9.164v44.342c-6.755,0.636-11.792,4.391-11.792,9.069h0v28.402  c0,5.139,6.077,9.164,13.835,9.164s13.835-4.025,13.835-9.164v-10.13c0.52-0.049,1.029-0.116,1.527-0.201v0.446  c0,4.109,3.885,7.506,9.409,8.702c0.156,0.081,0.334,0.128,0.522,0.128c0.032,0,0.063-0.002,0.095-0.005  c1.206,0.221,2.484,0.339,3.81,0.339c5.011,0,9.32-1.68,11.744-4.254c0.225-0.128,0.402-0.33,0.497-0.574  c1.02-1.284,1.595-2.758,1.595-4.337V43.615z M75.219,81.864c-0.625,0-1.132,0.507-1.132,1.132c0,0.188,0.047,0.365,0.128,0.521  c-0.132,0.113-0.271,0.224-0.419,0.333c-0.141-0.064-0.298-0.1-0.463-0.1c-0.588,0-1.071,0.449-1.126,1.022  c-0.499,0.23-1.046,0.436-1.634,0.612c0.075-0.151,0.119-0.322,0.119-0.502c0-0.625-0.507-1.132-1.132-1.132  c-0.625,0-1.132,0.507-1.132,1.132c0,0.368,0.176,0.694,0.449,0.901c-0.172,0.03-0.347,0.057-0.524,0.082  c-0.189-0.143-0.424-0.228-0.68-0.228c-0.332,0-0.63,0.144-0.837,0.372c-0.301,0.015-0.606,0.024-0.917,0.024  c-0.408,0-0.806-0.015-1.196-0.041c-0.206-0.219-0.498-0.356-0.823-0.356c-0.236,0-0.455,0.072-0.636,0.196  c-0.175-0.027-0.347-0.057-0.517-0.089c0.244-0.208,0.399-0.516,0.399-0.862c0-0.625-0.507-1.132-1.132-1.132  c-0.625,0-1.132,0.507-1.132,1.132c0,0.144,0.028,0.28,0.077,0.407c-0.584-0.19-1.123-0.41-1.614-0.655  c-0.113-0.506-0.564-0.884-1.104-0.884c-0.098,0-0.193,0.014-0.283,0.037c-0.19-0.143-0.365-0.291-0.527-0.441  c0.036-0.11,0.056-0.228,0.056-0.351c0-0.625-0.507-1.132-1.132-1.132c0,0-0.001,0-0.001,0c-0.121-0.303-0.183-0.607-0.183-0.907  v-0.618c0.06,0.01,0.121,0.016,0.184,0.016c0.625,0,1.132-0.507,1.132-1.132c0-0.625-0.507-1.132-1.132-1.132  c-0.063,0-0.124,0.006-0.184,0.016v-1.542c0.06,0.01,0.121,0.016,0.184,0.016c0.625,0,1.132-0.507,1.132-1.132  c0-0.625-0.507-1.132-1.132-1.132c-0.063,0-0.124,0.006-0.184,0.016v-1.542c0.06,0.01,0.121,0.016,0.184,0.016  c0.625,0,1.132-0.507,1.132-1.132c0-0.625-0.507-1.132-1.132-1.132c-0.063,0-0.124,0.006-0.184,0.016v-1.542  c0.06,0.01,0.121,0.016,0.184,0.016c0.625,0,1.132-0.507,1.132-1.132c0-0.625-0.507-1.132-1.132-1.132  c-0.063,0-0.124,0.006-0.184,0.016v-1.542c0.06,0.01,0.121,0.016,0.184,0.016c0.625,0,1.132-0.507,1.132-1.132  c0-0.625-0.507-1.132-1.132-1.132c-0.063,0-0.124,0.006-0.184,0.016v-1.542c0.06,0.01,0.121,0.016,0.184,0.016  c0.625,0,1.132-0.507,1.132-1.132c0-0.625-0.507-1.132-1.132-1.132c-0.063,0-0.124,0.006-0.184,0.016V57.7  c0.06,0.01,0.121,0.016,0.184,0.016c0.625,0,1.132-0.507,1.132-1.132c0-0.625-0.507-1.132-1.132-1.132  c-0.063,0-0.124,0.006-0.184,0.016v-1.542c0.06,0.01,0.121,0.016,0.184,0.016c0.625,0,1.132-0.507,1.132-1.132  c0-0.625-0.507-1.132-1.132-1.132c-0.063,0-0.124,0.006-0.184,0.016v-1.521c0.304,0.198,0.623,0.387,0.955,0.566  c-0.01,0.06-0.016,0.121-0.016,0.184c0,0.625,0.507,1.132,1.132,1.132c0.356,0,0.674-0.165,0.882-0.423  c0.161,0.059,0.324,0.116,0.489,0.171c-0.365,0.188-0.616,0.568-0.616,1.007c0,0.625,0.507,1.132,1.132,1.132  c0.625,0,1.132-0.507,1.132-1.132c0-0.214-0.061-0.414-0.164-0.584c0.551,0.132,1.12,0.241,1.704,0.327  c-0.019,0.083-0.03,0.169-0.03,0.257c0,0.625,0.507,1.132,1.132,1.132c0.625,0,1.132-0.507,1.132-1.132  c0-0.017-0.002-0.034-0.003-0.051c0.294,0.012,0.59,0.018,0.889,0.018c0.21,0,0.418-0.004,0.625-0.009  c-0.001,0.014-0.002,0.028-0.002,0.042c0,0.625,0.507,1.132,1.132,1.132c0.625,0,1.132-0.507,1.132-1.132  c0-0.076-0.008-0.15-0.022-0.221c0.566-0.076,1.119-0.174,1.656-0.293c-0.079,0.155-0.125,0.329-0.125,0.515  c0,0.625,0.507,1.132,1.132,1.132c0.625,0,1.132-0.507,1.132-1.132c0-0.4-0.208-0.75-0.521-0.952c0.154-0.049,0.307-0.1,0.458-0.154  c0.206,0.216,0.496,0.351,0.818,0.351c0.625,0,1.132-0.507,1.132-1.132c0-0.018-0.002-0.035-0.003-0.052  c0.422-0.217,0.824-0.45,1.204-0.698v1.596c-0.137-0.059-0.288-0.092-0.447-0.092c-0.625,0-1.132,0.507-1.132,1.132  c0,0.625,0.507,1.132,1.132,1.132c0.159,0,0.31-0.033,0.447-0.092v1.694c-0.137-0.059-0.288-0.092-0.447-0.092  c-0.625,0-1.132,0.507-1.132,1.132c0,0.625,0.507,1.132,1.132,1.132c0.159,0,0.31-0.033,0.447-0.092v1.693  c-0.137-0.059-0.288-0.092-0.447-0.092c-0.625,0-1.132,0.507-1.132,1.132c0,0.625,0.507,1.132,1.132,1.132  c0.159,0,0.31-0.033,0.447-0.092v1.693c-0.137-0.059-0.288-0.092-0.447-0.092c-0.625,0-1.132,0.507-1.132,1.132  c0,0.625,0.507,1.132,1.132,1.132c0.159,0,0.31-0.033,0.447-0.092v1.694c-0.137-0.059-0.288-0.092-0.447-0.092  c-0.625,0-1.132,0.507-1.132,1.132c0,0.625,0.507,1.132,1.132,1.132c0.159,0,0.31-0.033,0.447-0.092v1.693  c-0.137-0.059-0.288-0.092-0.447-0.092c-0.625,0-1.132,0.507-1.132,1.132c0,0.625,0.507,1.132,1.132,1.132  c0.159,0,0.31-0.033,0.447-0.092v1.694c-0.137-0.059-0.288-0.092-0.447-0.092c-0.625,0-1.132,0.507-1.132,1.132  c0,0.625,0.507,1.132,1.132,1.132c0.159,0,0.31-0.033,0.447-0.092v1.693c-0.137-0.059-0.288-0.092-0.447-0.092  c-0.625,0-1.132,0.507-1.132,1.132c0,0.625,0.507,1.132,1.132,1.132c0.159,0,0.31-0.033,0.447-0.092v0.694  c0,0.31-0.068,0.624-0.196,0.936C75.389,81.874,75.305,81.864,75.219,81.864z M55.418,37.586c-0.311,0.239-0.603,0.489-0.876,0.749  V17.308c0.298-0.093,0.59-0.194,0.876-0.301V37.586z M75.666,43.615c0,2.401-4.003,5.077-9.748,5.077s-9.748-2.676-9.748-5.077  c0-2.401,4.003-5.077,9.748-5.077S75.666,41.214,75.666,43.615z M57.776,36.159v-20.27c0.165-0.098,0.326-0.198,0.484-0.3V35.94  C58.096,36.011,57.934,36.084,57.776,36.159z M48.512,3.952c5.745,0,9.748,2.676,9.748,5.077s-4.003,5.077-9.748,5.077  c-5.745,0-9.748-2.676-9.748-5.077S42.767,3.952,48.512,3.952z M39.248,53.422c-0.16-0.019-0.322-0.036-0.484-0.051V15.589  c0.158,0.103,0.319,0.203,0.484,0.3V53.422z M41.606,17.008c0.286,0.107,0.578,0.207,0.876,0.301v36.77  c-0.286-0.085-0.579-0.163-0.876-0.235V17.008z M44.84,17.878c0.288,0.051,0.58,0.096,0.876,0.135v37.412  c-0.282-0.158-0.574-0.309-0.876-0.452V17.878z M48.074,18.188c0.145,0.003,0.291,0.005,0.438,0.005  c0.147,0,0.292-0.002,0.438-0.005v39.9c-0.263-0.33-0.556-0.647-0.876-0.951V18.188z M26.972,62.44c0-2.401,4.003-5.077,9.748-5.077  c5.745,0,9.748,2.676,9.748,5.077c0,2.401-4.003,5.077-9.748,5.077C30.975,67.517,26.972,64.841,26.972,62.44z M51.308,76.497  V18.013c0.296-0.039,0.588-0.084,0.876-0.135V42.48c-0.066,0.371-0.101,0.75-0.101,1.135V76.35  C51.83,76.405,51.572,76.454,51.308,76.497z"/>
<circle fill="#000000" cx="73.332" cy="58.471" r="1.132"/>
<circle fill="#000000" cx="71.446" cy="60.358" r="1.132"/>
<circle fill="#000000" cx="71.446" cy="56.585" r="1.132"/>
<circle fill="#000000" cx="73.332" cy="54.698" r="1.132"/>
<circle fill="#000000" cx="73.332" cy="66.017" r="1.132"/>
<circle fill="#000000" cx="71.446" cy="67.904" r="1.132"/>
<circle fill="#000000" cx="71.446" cy="64.131" r="1.132"/>
<circle fill="#000000" cx="73.332" cy="62.244" r="1.132"/>
<circle fill="#000000" cx="73.332" cy="73.563" r="1.132"/>
<circle fill="#000000" cx="71.446" cy="75.45" r="1.132"/>
<circle fill="#000000" cx="71.446" cy="71.677" r="1.132"/>
<circle fill="#000000" cx="73.332" cy="69.79" r="1.132"/>
<circle fill="#000000" cx="73.332" cy="81.109" r="1.132"/>
<circle fill="#000000" cx="71.446" cy="82.996" r="1.132"/>
<circle fill="#000000" cx="71.446" cy="79.223" r="1.132"/>
<circle fill="#000000" cx="73.332" cy="77.336" r="1.132"/>
<circle fill="#000000" cx="65.786" cy="58.471" r="1.132"/>
<circle fill="#000000" cx="69.559" cy="58.471" r="1.132"/>
<circle fill="#000000" cx="67.673" cy="60.358" r="1.132"/>
<circle fill="#000000" cx="63.9" cy="60.358" r="1.132"/>
<circle fill="#000000" cx="67.673" cy="56.585" r="1.132"/>
<circle fill="#000000" cx="63.9" cy="56.585" r="1.132"/>
<circle fill="#000000" cx="65.786" cy="54.698" r="1.132"/>
<circle fill="#000000" cx="69.559" cy="54.698" r="1.132"/>
<circle fill="#000000" cx="65.786" cy="66.017" r="1.132"/>
<circle fill="#000000" cx="69.559" cy="66.017" r="1.132"/>
<circle fill="#000000" cx="67.673" cy="67.904" r="1.132"/>
<circle fill="#000000" cx="63.9" cy="67.904" r="1.132"/>
<circle fill="#000000" cx="67.673" cy="64.131" r="1.132"/>
<circle fill="#000000" cx="63.9" cy="64.131" r="1.132"/>
<circle fill="#000000" cx="65.786" cy="62.244" r="1.132"/>
<circle fill="#000000" cx="69.559" cy="62.244" r="1.132"/>
<circle fill="#000000" cx="65.786" cy="73.563" r="1.132"/>
<circle fill="#000000" cx="69.559" cy="73.563" r="1.132"/>
<circle fill="#000000" cx="67.673" cy="75.45" r="1.132"/>
<circle fill="#000000" cx="63.9" cy="75.45" r="1.132"/>
<circle fill="#000000" cx="67.673" cy="71.677" r="1.132"/>
<circle fill="#000000" cx="63.9" cy="71.677" r="1.132"/>
<circle fill="#000000" cx="65.786" cy="69.79" r="1.132"/>
<circle fill="#000000" cx="69.559" cy="69.79" r="1.132"/>
<circle fill="#000000" cx="65.786" cy="81.109" r="1.132"/>
<circle fill="#000000" cx="69.559" cy="81.109" r="1.132"/>
<circle fill="#000000" cx="67.673" cy="82.996" r="1.132"/>
<circle fill="#000000" cx="63.9" cy="82.996" r="1.132"/>
<circle fill="#000000" cx="67.673" cy="79.222" r="1.132"/>
<circle fill="#000000" cx="63.9" cy="79.223" r="1.132"/>
<circle fill="#000000" cx="65.786" cy="77.336" r="1.132"/>
<circle fill="#000000" cx="69.559" cy="77.336" r="1.132"/>
<circle fill="#000000" cx="65.786" cy="84.882" r="1.132"/>
<circle fill="#000000" cx="58.24" cy="58.471" r="1.132"/>
<circle fill="#000000" cx="62.013" cy="58.471" r="1.132"/>
<circle fill="#000000" cx="60.127" cy="60.358" r="1.132"/>
<circle fill="#000000" cx="60.127" cy="56.585" r="1.132"/>
<circle fill="#000000" cx="58.24" cy="54.698" r="1.132"/>
<circle fill="#000000" cx="62.013" cy="54.698" r="1.132"/>
<circle fill="#000000" cx="58.24" cy="66.017" r="1.132"/>
<circle fill="#000000" cx="62.013" cy="66.017" r="1.132"/>
<circle fill="#000000" cx="60.127" cy="67.904" r="1.132"/>
<circle fill="#000000" cx="60.127" cy="64.131" r="1.132"/>
<circle fill="#000000" cx="58.24" cy="62.244" r="1.132"/>
<circle fill="#000000" cx="62.013" cy="62.244" r="1.132"/>
<circle fill="#000000" cx="58.24" cy="73.563" r="1.132"/>
<circle fill="#000000" cx="62.013" cy="73.563" r="1.132"/>
<circle fill="#000000" cx="60.127" cy="75.45" r="1.132"/>
<circle fill="#000000" cx="60.127" cy="71.677" r="1.132"/>
<circle fill="#000000" cx="58.24" cy="69.79" r="1.132"/>
<circle fill="#000000" cx="62.013" cy="69.79" r="1.132"/>
<circle fill="#000000" cx="58.24" cy="81.109" r="1.132"/>
<circle fill="#000000" cx="62.013" cy="81.109" r="1.132"/>
<circle fill="#000000" cx="60.127" cy="82.996" r="1.132"/>
<circle fill="#000000" cx="60.127" cy="79.222" r="1.132"/>
<circle fill="#000000" cx="58.24" cy="77.336" r="1.132"/>
<circle fill="#000000" cx="62.013" cy="77.336" r="1.132"/>
</svg>