<?xml version="1.0" encoding="utf-8"?>
<!-- Generator: Adobe Illustrator 16.0.0, SVG Export Plug-In . SVG Version: 6.00 Build 0)  -->
<!DOCTYPE svg PUBLIC "-//W3C//DTD SVG 1.1//EN" "http://www.w3.org/Graphics/SVG/1.1/DTD/svg11.dtd">
<svg version="1.1" id="Layer_1" xmlns="http://www.w3.org/2000/svg" xmlns:xlink="http://www.w3.org/1999/xlink" x="0px" y="0px"
	 width="100px" height="98.16px" viewBox="0 0 100 98.16" enable-background="new 0 0 100 98.16" xml:space="preserve">
<g>
	<circle fill="#010101" cx="43.199" cy="12.684" r="8.088"/>
	<path fill="#010101" d="M43.273,43.383c0,0.004,0,0.011,0,0.017c0.005,6.801,5.521,12.311,12.324,12.307
		c2.572-0.002,4.958-0.793,6.933-2.145c-0.127,0.818-0.213,1.65-0.213,2.504c0,8.934,7.243,16.178,16.177,16.178
		c8.936,0,16.176-7.244,16.176-16.178c-0.002-8.935-7.242-16.177-16.176-16.177c-4.066,0-7.771,1.512-10.613,3.988
		c0.006-0.166,0.023-0.328,0.023-0.494c0-6.803-5.514-12.316-12.314-12.316C48.787,31.067,43.273,36.581,43.273,43.383z"/>
	<path fill="#010101" d="M30.887,69.672c6.193-0.002,11.211-5.023,11.208-11.217c0-0.002,0-0.006,0-0.01
		c-0.002-3.232-1.379-6.135-3.567-8.18c1.267-0.937,2.099-2.429,2.099-4.126c0-2.842-2.306-5.146-5.147-5.146
		s-5.147,2.305-5.147,5.146c0,0.387,0.05,0.76,0.13,1.121c-5.998,0.224-10.794,5.144-10.792,11.195c0,0.004,0,0.006,0,0.01
		C19.672,64.658,24.694,69.676,30.887,69.672z"/>
	<circle fill="#010101" cx="54.413" cy="64.338" r="7.536"/>
	<polygon fill="#010101" points="15.901,82.629 15.901,0 9.467,0 9.467,82.629 0,82.629 0,89.062 9.467,89.062 9.467,98.16 
		15.901,98.16 15.901,89.062 100,89.062 100,82.629 	"/>
</g>
</svg>
